# xmcd CD database file
#
# Track frame offsets:
#	150
#	22687
#	43726
#	65216
#	85160
#	110996
#	132269
#	157294
#	181548
#	204806
#	221564
#	242943
#	263725
#
# Disc length: 3608 seconds
#
# Revision: 2
# Processed by: cddbd v1.5.2PL0 Copyright (c) Steve Scherf et al.
# Submitted via: CDex 1.70beta3
#
DISCID=b80e160d
DTITLE=Simone Kopmajer - New Romance
DYEAR=2011
DGENRE=Jazz
TTITLE0=Feel You - From Dreams Of Love No. 3
TTITLE1=Come, Dance With Me - From Prelude Op. 28-4
TTITLE2=Palace Lights - From Pavane For A Dead Princess
TTITLE3=Two Love Brids - From La Campanella
TTITLE4=New Romance - From Valse
TTITLE5=Free - From Swan Lake
TTITLE6=Love's Sorrow - From Liebesleid
TTITLE7=Stranger In Paradise - From Polovetsian Dances
TTITLE8=My Sweet Love - From Air On The G String
TTITLE9=Dance Of A Flower In Spring - From Waltz Of The Flowers
TTITLE10=Our Love Is Strong - From The Swan
TTITLE11=The Sound Of The Wind - From Vocalise
TTITLE12=Wiegenlied - From Lullaby
EXTD=YEAR: 2011
EXTT0=
EXTT1=
EXTT2=
EXTT3=
EXTT4=
EXTT5=
EXTT6=
EXTT7=
EXTT8=
EXTT9=
EXTT10=
EXTT11=
EXTT12=
PLAYORDER=
